<svg xmlns="http://www.w3.org/2000/svg" width="512" height="512" viewBox="0 0 512 512">
  <!-- Adaptive-icon FOREGROUND: pin + compass + route on transparent bg,
       scaled to ~0.8 so it sits inside Android's adaptive safe zone. Pairs with
       a solid teal adaptive background. -->
  <g transform="translate(256,256) scale(0.8) translate(-256,-256)">
    <g transform="translate(56,56) scale(4)" fill="none">
      <path d="M12 84 Q 50 74 88 84" stroke="#fff" stroke-width="6" stroke-linecap="round" opacity="0.9"/>
      <circle cx="12" cy="84" r="4.5" fill="#fff"/>
      <circle cx="88" cy="84" r="4.5" fill="#fff"/>
      <path d="M50 14 C 65 14 76 25 76 40 C 76 58 50 84 50 84 C 50 84 24 58 24 40 C 24 25 35 14 50 14 Z" fill="#fff"/>
      <path d="M50 26 L56 40 L50 54 L44 40 Z" fill="#0f766e"/>
      <path d="M36 40 L50 36 L64 40 L50 44 Z" fill="#0f766e" opacity="0.55"/>
      <circle cx="50" cy="40" r="3" fill="#fff"/>
    </g>
  </g>
</svg>
